<svg xmlns="http://www.w3.org/2000/svg" class="iconLeft" viewBox="0 0 300 300"><rect width="300" height="300" x="0" y="0" fill="transparent" class="logo-background-square"/><g id="15219ba0-5b97-466e-a79e-390f38a1ac70" fill="#000"><path d="M3.58 13.13L3.58 13.13L3.58 13.13Q3.35 13.13 3.03 13.11L3.03 13.11L3.03 13.11Q2.72 13.09 2.39 13.05L2.39 13.05L2.39 13.05Q2.06 13.02 1.76 12.97L1.76 12.97L1.76 12.97Q1.47 12.92 1.26 12.87L1.26 12.87L1.26 3.53L1.26 3.53Q1.51 3.46 1.82 3.41L1.82 3.41L1.82 3.41Q2.13 3.36 2.46 3.32L2.46 3.32L2.46 3.32Q2.79 3.29 3.10 3.28L3.10 3.28L3.10 3.28Q3.42 3.26 3.68 3.26L3.68 3.26L3.68 3.26Q4.47 3.26 5.17 3.39L5.17 3.39L5.17 3.39Q5.88 3.51 6.41 3.81L6.41 3.81L6.41 3.81Q6.94 4.10 7.26 4.58L7.26 4.58L7.26 4.58Q7.57 5.07 7.57 5.78L7.57 5.78L7.57 5.78Q7.57 6.57 7.17 7.12L7.17 7.12L7.17 7.12Q6.78 7.67 6.10 7.88L6.10 7.88L6.10 7.88Q6.52 7.98 6.87 8.16L6.87 8.16L6.87 8.16Q7.22 8.34 7.49 8.63L7.49 8.63L7.49 8.63Q7.76 8.92 7.90 9.33L7.90 9.33L7.90 9.33Q8.05 9.74 8.05 10.32L8.05 10.32L8.05 10.32Q8.05 11.69 6.96 12.41L6.96 12.41L6.96 12.41Q5.87 13.13 3.58 13.13ZM4.23 8.40L2.21 8.40L2.21 12.22L2.21 12.22Q2.42 12.25 2.84 12.29L2.84 12.29L2.84 12.29Q3.26 12.32 3.70 12.32L3.70 12.32L3.70 12.32Q4.34 12.32 4.95 12.24L4.95 12.24L4.95 12.24Q5.56 12.15 6.02 11.93L6.02 11.93L6.02 11.93Q6.48 11.70 6.76 11.31L6.76 11.31L6.76 11.31Q7.04 10.92 7.04 10.30L7.04 10.30L7.04 10.30Q7.04 9.74 6.85 9.37L6.85 9.37L6.85 9.37Q6.65 9.00 6.29 8.79L6.29 8.79L6.29 8.79Q5.92 8.57 5.40 8.48L5.40 8.48L5.40 8.48Q4.87 8.40 4.23 8.40L4.23 8.40ZM2.21 4.17L2.21 7.59L4.06 7.59L4.06 7.59Q4.58 7.59 5.04 7.51L5.04 7.51L5.04 7.51Q5.50 7.43 5.84 7.23L5.84 7.23L5.84 7.23Q6.19 7.03 6.38 6.68L6.38 6.68L6.38 6.68Q6.58 6.34 6.58 5.81L6.58 5.81L6.58 5.81Q6.58 5.33 6.37 5.00L6.37 5.00L6.37 5.00Q6.16 4.68 5.78 4.47L5.78 4.47L5.78 4.47Q5.39 4.26 4.86 4.16L4.86 4.16L4.86 4.16Q4.33 4.07 3.68 4.07L3.68 4.07L3.68 4.07Q3.16 4.07 2.81 4.10L2.81 4.10L2.81 4.10Q2.45 4.13 2.21 4.17L2.21 4.17ZM9.59 9.42L9.59 9.42L9.59 9.42Q9.59 8.47 9.86 7.76L9.86 7.76L9.86 7.76Q10.14 7.06 10.58 6.58L10.58 6.58L10.58 6.58Q11.02 6.10 11.59 5.87L11.59 5.87L11.59 5.87Q12.15 5.64 12.75 5.64L12.75 5.64L12.75 5.64Q14.08 5.64 14.88 6.51L14.88 6.51L14.88 6.51Q15.67 7.38 15.67 9.18L15.67 9.18L15.67 9.18Q15.67 9.30 15.66 9.41L15.66 9.41L15.66 9.41Q15.65 9.52 15.64 9.62L15.64 9.62L10.56 9.62L10.56 9.62Q10.60 10.95 11.21 11.66L11.21 11.66L11.21 11.66Q11.83 12.38 13.17 12.38L13.17 12.38L13.17 12.38Q13.92 12.38 14.35 12.24L14.35 12.24L14.35 12.24Q14.78 12.10 14.98 12.00L14.98 12.00L15.15 12.78L15.15 12.78Q14.95 12.89 14.41 13.05L14.41 13.05L14.41 13.05Q13.87 13.20 13.15 13.20L13.15 13.20L13.15 13.20Q12.19 13.20 11.52 12.92L11.52 12.92L11.52 12.92Q10.85 12.64 10.42 12.14L10.42 12.14L10.42 12.14Q9.98 11.63 9.79 10.94L9.79 10.94L9.79 10.94Q9.59 10.25 9.59 9.42ZM10.58 8.85L14.73 8.85L14.73 8.85Q14.70 7.71 14.20 7.08L14.20 7.08L14.20 7.08Q13.69 6.45 12.77 6.45L12.77 6.45L12.77 6.45Q12.28 6.45 11.89 6.65L11.89 6.65L11.89 6.65Q11.51 6.85 11.22 7.17L11.22 7.17L11.22 7.17Q10.93 7.50 10.77 7.94L10.77 7.94L10.77 7.94Q10.61 8.37 10.58 8.85L10.58 8.85ZM17.70 13.05L17.70 6.06L17.70 6.06Q18.10 5.95 18.79 5.81L18.79 5.81L18.79 5.81Q19.47 5.67 20.47 5.67L20.47 5.67L20.47 5.67Q21.29 5.67 21.85 5.91L21.85 5.91L21.85 5.91Q22.40 6.15 22.73 6.59L22.73 6.59L22.73 6.59Q23.06 7.03 23.20 7.64L23.20 7.64L23.20 7.64Q23.34 8.26 23.34 9.00L23.34 9.00L23.34 13.05L22.43 13.05L22.43 9.30L22.43 9.30Q22.43 8.53 22.32 7.99L22.32 7.99L22.32 7.99Q22.22 7.46 21.97 7.13L21.97 7.13L21.97 7.13Q21.73 6.79 21.33 6.64L21.33 6.64L21.33 6.64Q20.93 6.50 20.33 6.50L20.33 6.50L20.33 6.50Q19.68 6.50 19.21 6.57L19.21 6.57L19.21 6.57Q18.75 6.64 18.61 6.69L18.61 6.69L18.61 13.05L17.70 13.05ZM24.30 15.67L24.30 15.67L24.30 15.67Q24.15 15.67 23.92 15.62L23.92 15.62L23.92 15.62Q23.69 15.58 23.58 15.53L23.58 15.53L23.70 14.78L23.70 14.78Q23.80 14.81 23.97 14.84L23.97 14.84L23.97 14.84Q24.14 14.87 24.29 14.87L24.29 14.87L24.29 14.87Q25.12 14.87 25.39 14.41L25.39 14.41L25.39 14.41Q25.66 13.94 25.66 13.02L25.66 13.02L25.66 5.81L26.57 5.81L26.57 12.98L26.57 12.98Q26.57 14.35 26.05 15.01L26.05 15.01L26.05 15.01Q25.54 15.67 24.30 15.67ZM26.78 3.63L26.78 3.63L26.78 3.63Q26.78 3.95 26.59 4.14L26.59 4.14L26.59 4.14Q26.39 4.33 26.11 4.33L26.11 4.33L26.11 4.33Q25.83 4.33 25.63 4.14L25.63 4.14L25.63 4.14Q25.44 3.95 25.44 3.63L25.44 3.63L25.44 3.63Q25.44 3.30 25.63 3.12L25.63 3.12L25.63 3.12Q25.83 2.93 26.11 2.93L26.11 2.93L26.11 2.93Q26.39 2.93 26.59 3.12L26.59 3.12L26.59 3.12Q26.78 3.30 26.78 3.63ZM29.89 5.81L29.89 13.05L28.98 13.05L28.98 5.81L29.89 5.81ZM30.10 3.63L30.10 3.63L30.10 3.63Q30.10 3.95 29.90 4.14L29.90 4.14L29.90 4.14Q29.71 4.33 29.43 4.33L29.43 4.33L29.43 4.33Q29.15 4.33 28.95 4.14L28.95 4.14L28.95 4.14Q28.76 3.95 28.76 3.63L28.76 3.63L28.76 3.63Q28.76 3.30 28.95 3.12L28.95 3.12L28.95 3.12Q29.15 2.93 29.43 2.93L29.43 2.93L29.43 2.93Q29.71 2.93 29.90 3.12L29.90 3.12L29.90 3.12Q30.10 3.30 30.10 3.63Z" transform="matrix(2.9247240488371147,0,0,2.9247240488371147,171.96580571161775,122.80006648527655)"/></g><defs><linearGradient id="ba801852-f0f4-4111-85f9-b124f4917ffc" x1="0%" x2="100%" y1="0%" y2="0%" gradientTransform="rotate(25)"><stop offset="0%" stop-color="#8E42D3" stop-opacity="1"/><stop offset="100%" stop-color="#D46975" stop-opacity="1"/></linearGradient></defs><g id="d2acf920-73ee-469a-9a39-874f1ed025af" fill="url(#ba801852-f0f4-4111-85f9-b124f4917ffc)" stroke="none" transform="matrix(1.3627884220584459,0,0,1.3627884220584459,33.18605788970777,81.86028517475012)"><path d="M23.943 30.807L5 50.001l18.942 19.192a4.386 4.386 0 0 0 6.258.002 4.522 4.522 0 0 0 .002-6.338L18.193 50.695l-3.624 2.289 15.634-15.841a4.494 4.494 0 0 0 1.295-3.168 4.5 4.5 0 0 0-1.297-3.17 4.387 4.387 0 0 0-6.258.002zM76.057 30.808L95 50.001 76.058 69.193a4.386 4.386 0 0 1-6.258.002 4.522 4.522 0 0 1-.002-6.338l12.009-12.161 3.624 2.289-15.635-15.841a4.494 4.494 0 0 1-1.295-3.168 4.5 4.5 0 0 1 1.297-3.17 4.386 4.386 0 0 1 6.259.002zM60.899 32.352a4.492 4.492 0 0 0-2.366-2.476 4.386 4.386 0 0 0-5.825 2.288l-13.82 32.062a4.496 4.496 0 0 0-.048 3.422 4.492 4.492 0 0 0 2.366 2.476 4.386 4.386 0 0 0 5.825-2.288l13.82-32.062a4.496 4.496 0 0 0 .048-3.422z"/></g></svg>